D:\school\WTK\thesis\model\3dpredictsim\Results\batch_lin_tmt\Pog_s1_tmt_bCst_d05_k1000_ig24_act_TTC_v2_GRF.mot
nRows=27
nColumns=19

name D:\school\WTK\thesis\model\3dpredictsim\Results\batch_lin_tmt\Pog_s1_tmt_bCst_d05_k1000_ig24_act_TTC_v2_GRF.mot
datacolumns 19
datarows 27
range 0.0000000000 0.3237377795
endheader
time 	ground_force_vx	ground_force_vy	ground_force_vz	ground_force_px	ground_force_py	ground_force_pz	1_ground_force_vx	1_ground_force_vy	1_ground_force_vz	1_ground_force_px	1_ground_force_py	1_ground_force_pz	ground_torque_x	ground_torque_y	ground_torque_z	1_ground_torque_x	1_ground_torque_y	1_ground_torque_z
        0.0000000000	      -28.9863805316	       20.8427692605	        6.2602920590	        0.1955148758	        0.0000000000	        0.0539401188	      110.8959727524	      441.2884646623	       -0.2784880696	       -0.3568010091	        0.0000000000	       -0.0305732670	        0.0000000000	        0.0000000000	        0.0000000000	        0.0000000000	        0.0000000000	        0.0000000000	
        0.0124514531	      -88.8351767429	       77.2209727396	       24.6045354339	        0.2063525036	        0.0000000000	        0.0515055944	       77.1281955502	      335.4099453401	       -5.9517063176	       -0.3490279599	        0.0000000000	       -0.0271616108	        0.0000000000	        0.0000000000	        0.0000000000	        0.0000000000	        0.0000000000	        0.0000000000	
        0.0249029061	     -107.7255687450	      223.0583459508	       43.7957868513	        0.2131409841	        0.0000000000	        0.0499325801	       41.2478819473	      221.3331739185	      -15.9755510919	       -0.3355758648	        0.0000000000	       -0.0209618638	        0.0000000000	        0.0000000000	        0.0000000000	        0.0000000000	        0.0000000000	        0.0000000000	
        0.0373543592	      -69.7695421193	      466.9536645849	        2.5214974446	        0.2174525878	        0.0000000000	        0.0489675033	       25.9926792380	      170.8469125386	      -17.2709135498	       -0.3300686332	        0.0000000000	       -0.0180742157	        0.0000000000	        0.0000000000	        0.0000000000	        0.0000000000	        0.0000000000	        0.0000000000	
        0.0498058122	      -99.6213525963	      713.3626525661	      -16.6648832213	        0.2261079575	        0.0000000000	        0.0503787479	       20.5691156514	      128.0947497340	      -15.6036990707	       -0.3297446697	        0.0000000000	       -0.0180349680	        0.0000000000	        0.0000000000	        0.0000000000	        0.0000000000	        0.0000000000	        0.0000000000	
        0.0622572653	     -144.5157216379	      894.5846680338	      -23.6938422180	        0.2352239990	        0.0000000000	        0.0522538421	        7.3464263215	       73.4940479628	      -12.0628710394	       -0.3298131218	        0.0000000000	       -0.0180345555	        0.0000000000	        0.0000000000	        0.0000000000	        0.0000000000	        0.0000000000	        0.0000000000	
        0.0747087183	     -157.7426195617	      935.9002618460	      -24.8958276731	        0.2409469734	        0.0000000000	        0.0532759536	       -8.4748968647	       15.9497775466	       -1.8566178523	       -0.3332269111	        0.0000000000	       -0.0171764963	        0.0000000000	        0.0000000000	        0.0000000000	        0.0000000000	        0.0000000000	        0.0000000000	
        0.0871601714	     -143.0459962200	      901.5299566584	      -23.9152573064	        0.2450653548	        0.0000000000	        0.0538349307	        0.4816595199	       -0.4082434451	       -0.0556686944	        0.0000000000	        0.0000000000	        0.0000000000	        0.0000000000	        0.0000000000	        0.0000000000	        0.0000000000	        0.0000000000	        0.0000000000	
        0.0996116245	     -127.4543132745	      838.3643200293	      -20.4646926239	        0.2490177005	        0.0000000000	        0.0540743381	       -4.2988715005	        3.1403455104	        0.5221069536	        0.0000000000	        0.0000000000	        0.0000000000	        0.0000000000	        0.0000000000	        0.0000000000	        0.0000000000	        0.0000000000	        0.0000000000	
        0.1120630775	     -111.8624828086	      788.0433623453	      -18.8227227227	        0.2531229036	        0.0000000000	        0.0539973369	       -3.5365362533	        2.2580930035	        0.4185637203	        0.0000000000	        0.0000000000	        0.0000000000	        0.0000000000	        0.0000000000	        0.0000000000	        0.0000000000	        0.0000000000	        0.0000000000	
        0.1245145306	      -99.1105222961	      748.8414809963	      -18.3331836958	        0.2578955740	        0.0000000000	        0.0537110212	       -2.2850563221	        1.3264388827	        0.2561996677	        0.0000000000	        0.0000000000	        0.0000000000	        0.0000000000	        0.0000000000	        0.0000000000	        0.0000000000	        0.0000000000	        0.0000000000	
        0.1369659836	      -88.4039812238	      717.8600923656	      -18.9440941216	        0.2630181147	        0.0000000000	        0.0532526881	       -1.7632384991	        0.9524848013	        0.1913045411	        0.0000000000	        0.0000000000	        0.0000000000	        0.0000000000	        0.0000000000	        0.0000000000	        0.0000000000	        0.0000000000	        0.0000000000	
        0.1494174367	      -77.4317661146	      688.9434967702	      -19.1868136588	        0.2678828792	        0.0000000000	        0.0528391596	       -1.2091691258	        0.6217252665	        0.1229801117	        0.0000000000	        0.0000000000	        0.0000000000	        0.0000000000	        0.0000000000	        0.0000000000	        0.0000000000	        0.0000000000	        0.0000000000	
        0.1618688898	      -67.0446082747	      662.3365470949	      -19.8123721744	        0.2723978128	        0.0000000000	        0.0525216817	       -0.8074847280	        0.3990271750	        0.0785054356	        0.0000000000	        0.0000000000	        0.0000000000	        0.0000000000	        0.0000000000	        0.0000000000	        0.0000000000	        0.0000000000	        0.0000000000	
        0.1743203428	      -57.4722857913	      639.4380277564	      -20.2894060187	        0.2767327641	        0.0000000000	        0.0522919614	       -0.5859787061	        0.2800199966	        0.0549380675	        0.0000000000	        0.0000000000	        0.0000000000	        0.0000000000	        0.0000000000	        0.0000000000	        0.0000000000	        0.0000000000	        0.0000000000	
        0.1867717959	      -48.9740443144	      620.4955343864	      -20.6370891253	        0.2810810447	        0.0000000000	        0.0521031197	       -0.4774259205	        0.2219216316	        0.0433572905	        0.0000000000	        0.0000000000	        0.0000000000	        0.0000000000	        0.0000000000	        0.0000000000	        0.0000000000	        0.0000000000	        0.0000000000	
        0.1992232489	      -41.6165708666	      605.3184812343	      -20.5471190213	        0.2855460467	        0.0000000000	        0.0519250161	       -0.4331036487	        0.1965996343	        0.0379427761	        0.0000000000	        0.0000000000	        0.0000000000	        0.0000000000	        0.0000000000	        0.0000000000	        0.0000000000	        0.0000000000	        0.0000000000	
        0.2116747020	      -35.2383044741	      593.9335898736	      -20.3844843218	        0.2902001431	        0.0000000000	        0.0517206237	       -0.4327938617	        0.1923738705	        0.0364616284	        0.0000000000	        0.0000000000	        0.0000000000	        0.0000000000	        0.0000000000	        0.0000000000	        0.0000000000	        0.0000000000	        0.0000000000	
        0.2241261550	      -29.8332857991	      586.3051188816	      -20.0383722354	        0.2952070742	        0.0000000000	        0.0514500611	       -0.4768983501	        0.2077252248	        0.0385334142	        0.0000000000	        0.0000000000	        0.0000000000	        0.0000000000	        0.0000000000	        0.0000000000	        0.0000000000	        0.0000000000	        0.0000000000	
        0.2365776081	      -25.6024207770	      581.2102911587	      -19.3643785249	        0.3004849622	        0.0000000000	        0.0511002644	       -0.5681787876	        0.2427778177	        0.0436573883	        0.0000000000	        0.0000000000	        0.0000000000	        0.0000000000	        0.0000000000	        0.0000000000	        0.0000000000	        0.0000000000	        0.0000000000	
        0.2490290612	      -21.5370433613	      577.9675848608	      -18.7150780076	        0.3059375916	        0.0000000000	        0.0506765746	       -0.7090874630	        0.2976557892	        0.0512293656	        0.0000000000	        0.0000000000	        0.0000000000	        0.0000000000	        0.0000000000	        0.0000000000	        0.0000000000	        0.0000000000	        0.0000000000	
        0.2614805142	      -17.8511607172	      576.0077691729	      -18.2093155637	        0.3115470394	        0.0000000000	        0.0501802031	       -0.8949935785	        0.3697667922	        0.0602103331	        0.0000000000	        0.0000000000	        0.0000000000	        0.0000000000	        0.0000000000	        0.0000000000	        0.0000000000	        0.0000000000	        0.0000000000	
        0.2739319673	      -14.4503657545	      574.1309981738	      -18.2274772789	        0.3171582163	        0.0000000000	        0.0496406945	       -1.1090041710	        0.4519289324	        0.0692596957	        0.0000000000	        0.0000000000	        0.0000000000	        0.0000000000	        0.0000000000	        0.0000000000	        0.0000000000	        0.0000000000	        0.0000000000	
        0.2863834203	      -11.1834008838	      571.3820383332	      -18.3675328357	        0.3226790731	        0.0000000000	        0.0490879660	       -1.3217535143	        0.5323863111	        0.0766188325	        0.0000000000	        0.0000000000	        0.0000000000	        0.0000000000	        0.0000000000	        0.0000000000	        0.0000000000	        0.0000000000	        0.0000000000	
        0.2988348734	       -7.9244938886	      567.8746812403	      -18.4654248505	        0.3280848002	        0.0000000000	        0.0485348252	       -1.4983513215	        0.5978023896	        0.0806706509	        0.0000000000	        0.0000000000	        0.0000000000	        0.0000000000	        0.0000000000	        0.0000000000	        0.0000000000	        0.0000000000	        0.0000000000	
        0.3112863264	       -4.6623566048	      563.7902997268	      -18.2567982740	        0.3333475938	        0.0000000000	        0.0479900373	       -1.6154000957	        0.6395728995	        0.0802495770	        0.0000000000	        0.0000000000	        0.0000000000	        0.0000000000	        0.0000000000	        0.0000000000	        0.0000000000	        0.0000000000	        0.0000000000	
        0.3237377795	       -1.2597416569	      559.1710959069	      -17.1345350718	        0.3384610474	        0.0000000000	        0.0474593812	       -1.6745583204	        0.6587921670	        0.0748717219	        0.0000000000	        0.0000000000	        0.0000000000	        0.0000000000	        0.0000000000	        0.0000000000	        0.0000000000	        0.0000000000	        0.0000000000	
